<svg width="512" height="512" xmlns="http://www.w3.org/2000/svg">

 <g>
  <title>background</title>
  <rect fill="none" id="canvas_background" height="402" width="582" y="-1" x="-1"/>
 </g>
 <g>
  <title>Layer 1</title>
  <path fill="#ffffff" id="svg_3" d="m256,0c-102.245,0 -185.427,83.182 -185.427,185.426c0,126.888 165.939,313.167 173.004,321.035c6.636,7.391 18.222,7.378 24.846,0c7.065,-7.868 173.004,-194.147 173.004,-321.035c-0.002,-102.244 -83.183,-185.426 -185.427,-185.426zm0,278.719c-51.442,0 -93.292,-41.851 -93.292,-93.293s41.851,-93.292 93.292,-93.292s93.291,41.851 93.291,93.293s-41.85,93.292 -93.291,93.292z"/>
  <ellipse stroke="#ffffff" ry="95" rx="95" id="svg_19" cy="188.195895" cx="257" stroke-width="1.5" fill="#e5e5e5"/>
 </g>
</svg>